<?xml version="1.0" encoding="UTF-8"?>
<svg width="150px" height="150px" viewBox="0 0 150 150" version="1.1" xmlns="http://www.w3.org/2000/svg" xmlns:xlink="http://www.w3.org/1999/xlink">
    <!-- Generator: Sketch 46.1 (44463) - http://www.bohemiancoding.com/sketch -->
    <title>Icon</title>
    <desc>Created with Sketch.</desc>
    <defs>
        <polygon id="path-1" points="37 64.8462621 37 31.0975236 113.324355 31.0975236 113.324355 98.5950006 37 98.5950006"></polygon>
    </defs>
    <g id="Master" stroke="none" stroke-width="1" fill="none" fill-rule="evenodd">
        <g id="1-Home" transform="translate(-1103.000000, -1613.000000)">
            <g id="Products" transform="translate(0.000000, 1396.000000)">
                <g id="nextGrow" transform="translate(996.000000, 216.000000)">
                    <g id="Icon" transform="translate(107.000000, 0.000000)">
                        <g id="Group-3" transform="translate(0.000000, 0.008740)">
                            <circle id="Oval-3-Copy-2" fill="#82FFEC" cx="75" cy="75.9912596" r="75"></circle>
                            <mask id="mask-2" fill="white">
                                <use xlink:href="#path-1"></use>
                            </mask>
                            <g id="Clip-2"></g>
                            <path d="M110.573907,95.275877 L100.959513,95.275877 C100.583345,92.6316418 100.284624,90.0316617 100.09654,87.5312552 C102.851413,87.3984902 106.369684,83.8691554 107.929672,82.1432111 C112.698147,76.8768683 111.514326,75.1398602 111.116031,74.5645455 C110.46327,73.6130634 109.13562,73.2147685 107.287975,73.4581709 C104.451231,73.8055725 101.816953,75.1088818 99.8199468,77.1534619 C99.8752655,73.7768068 100.141902,70.4067899 100.616536,67.0633261 C100.963938,67.2204312 101.341212,67.2989838 101.722911,67.2956647 C104.488847,67.2956647 108.12882,63.6556924 109.710935,61.8965569 C114.47941,56.6302141 113.295589,54.893206 112.908358,54.3178913 C112.255597,53.3664092 110.927947,52.9681143 109.080302,53.2115167 C106.52347,53.5290462 104.122637,54.6166124 102.198652,56.3314929 C102.314821,53.2203677 101.978484,50.1081361 101.202915,47.0932655 C103.968851,46.6285882 106.734788,42.0039426 107.841162,39.8465122 C111.160286,33.5623048 109.57817,32.1793366 109.069238,31.7146593 C108.206266,30.9512608 106.856489,30.8959421 105.075226,31.5487031 C101.669805,32.8343103 99.0299954,35.5925021 97.8948551,39.0499225 C97.1214993,37.7012519 96.2596335,36.404581 95.3170024,35.1665479 C94.7593896,34.4396598 93.7171848,34.3024693 92.9891903,34.8611885 C92.5787254,35.1765052 92.3386421,35.6666292 92.3408548,36.1844124 C91.7976249,35.967563 91.2344803,35.8038196 90.6591655,35.6976076 C88.9996037,35.4763327 84.5409143,35.4984602 83.8549621,38.1980141 C83.0694361,41.2958629 88.6455639,44.6260502 91.0795879,45.9426359 C92.344174,46.6374392 93.6751425,47.2050093 95.0514725,47.635389 C95.7363183,47.851132 96.4466108,47.9706205 97.1646479,47.9894289 C97.4478798,47.9938544 97.7300053,47.9639822 98.0054925,47.9009189 C98.8208906,51.1348517 99.081995,54.4827411 98.7799547,57.8029711 C97.9844714,56.5217894 96.9289901,55.4209467 95.682106,54.5723574 C95.1753864,54.2293813 94.6343693,53.9406175 94.0667991,53.7093853 C92.5178748,53.0898155 88.1808865,52.0055685 86.8532371,54.46172 C85.3264402,57.2719113 89.9068308,61.8633657 91.9536238,63.7110112 C93.3554003,65.110575 95.0072175,66.2357579 96.8216718,67.0301348 L97.2974128,67.1850273 C97.1978391,67.9152345 97.1203929,68.6565054 97.0429467,69.3977763 C96.7552893,71.9645653 96.5826949,74.613226 96.5229506,77.3415456 C95.4486609,75.8656419 93.9860338,74.7161188 92.2965999,74.022422 C90.7476755,73.4028522 86.4106873,72.3186052 85.0830378,74.7747566 C83.5562409,77.584948 88.1366316,82.1874661 90.1834245,84.0240479 C93.4140382,86.9448767 95.3280661,87.6308289 96.4455044,87.6308289 C96.5672056,87.6407863 96.6889068,87.6407863 96.810608,87.6308289 C96.9986917,90.1644266 97.2863491,92.7544494 97.6514527,95.3754507 L73.2005752,95.3754507 C72.9239815,93.8541857 72.8055995,92.3074741 72.8465353,90.7618689 L73.2669577,91.1502063 C74.7605633,92.4988769 75.9554478,93.1627016 76.9401212,93.1627016 C77.3362032,93.1593825 77.722328,93.0365749 78.0464957,92.8097681 C78.8574682,92.1724964 79.2214655,91.1214406 78.9758503,90.1201716 C78.7755965,87.7525301 77.3240331,85.6714396 75.1699219,84.6657451 C74.8114565,84.5241292 74.440821,84.4134917 74.0635473,84.3338327 C74.6820107,82.8446526 75.4487283,81.4207486 76.3537426,80.0853545 C77.3439479,78.6171954 78.1925371,77.0572073 78.8873404,75.4275176 C80.8456233,70.6258521 80.9230695,64.9612144 79.163934,58.588497 C79.6219731,57.6093555 79.77244,56.5129384 79.5954201,55.4463933 C79.208189,51.850676 76.8294837,47.1928392 72.5699417,45.4890224 C70.9214436,44.8362614 66.3521167,43.6856319 64.9580848,46.2413571 C63.3538417,49.1843134 68.2772084,54.0855526 70.4235751,56.0438356 C73.034619,58.4114771 74.8490733,59.3629592 76.0439578,59.7391266 C76.3205514,60.7569911 76.5418263,61.7527282 76.7077825,62.7263378 C77.1060773,64.9158531 77.1979064,67.1496233 76.9843761,69.3645851 C76.6546765,69.0171835 76.2829347,68.7129305 75.8780016,68.457358 C75.6168972,68.29804 75.3436227,68.1608496 75.0592844,68.0479994 C73.7648262,67.5280034 71.3308022,67.107581 70.4125113,68.8003341 C69.4942204,70.4930871 71.3639934,72.8386012 73.1341927,74.4317805 C73.6619334,74.9207981 74.2328226,75.3611352 74.8380095,75.7483662 L75.0039657,75.84794 L74.7605633,76.3126173 C74.3733322,76.9875057 73.9750374,77.629203 73.554615,78.2930277 C72.0466265,80.4670537 70.9236564,82.8855885 70.2354914,85.4402073 C69.4245189,88.6520126 69.2884348,91.9976892 69.8371966,95.2648133 L50.9403193,95.2648133 C50.7776822,94.7337535 50.638279,94.2215021 50.519897,93.728059 C49.8007535,90.6622951 49.9777734,88.3389086 51.0620205,86.8342392 C51.4935066,86.2755201 52.0135026,85.7898216 52.5998811,85.3959523 L53.1530684,85.0087212 C54.752886,84.0727283 56.0207912,82.6609944 56.7819769,80.9704541 C57.4955885,79.1228086 57.5962686,77.0937177 57.0696343,75.1841152 C57.5155032,74.2005483 57.6538,73.1052375 57.4679291,72.0420115 C57.080698,68.4462942 54.7019928,63.7884574 50.4424507,62.0846406 C48.7939527,61.4208159 44.2246258,60.2812501 42.8305939,62.8369753 C41.2263508,65.7799316 46.1497175,70.6811708 48.2960841,72.6394538 C50.8960643,74.9849678 52.7215823,75.9585774 53.8943393,76.323681 C54.1654011,77.4477576 54.0956995,78.6260464 53.6951919,79.7091871 C53.1597066,80.8067107 52.2978409,81.7106187 51.2279767,82.2981036 C50.1249213,82.990694 49.1513117,83.8713682 48.3514029,84.8980838 C46.5812036,87.3431715 46.2824825,90.8282513 47.4552395,95.275877 L38.6595618,95.275877 C37.7423773,95.275877 37,96.0193607 37,96.9354388 C37,97.8526233 37.7423773,98.5950006 38.6595618,98.5950006 L110.573907,98.5950006 C111.489986,98.5950006 112.233469,97.8526233 112.233469,96.9354388 C112.233469,96.0193607 111.489986,95.275877 110.573907,95.275877" id="Fill-1" fill="#051A16" mask="url(#mask-2)"></path>
                        </g>
                        <path d="M107.930115,76.6647763 C106.82374,78.8775254 102.398242,83.3030236 100.449916,84.0996132 C100.456555,83.1215781 100.644638,82.1535004 101.003104,81.2451669 C102.254413,78.1362544 106.148852,76.7754137 107.930115,76.6647763" id="Fill-4" fill="#82FFEC"></path>
                        <path d="M89.9515284,56.207579 C90.9284571,56.21643 91.8965348,56.4034073 92.8059747,56.7607663 C94.2309851,57.398038 95.400423,58.4977743 96.1250983,59.8807425 C96.8055187,61.0468613 97.2325793,62.3435322 97.3753016,63.6866709 C97.045602,63.5162893 96.7269661,63.3248865 96.4238195,63.1113562 C94.0771991,61.4739218 90.6596081,57.9224595 89.9515284,56.207579" id="Fill-6" fill="#82FFEC"></path>
                        <path d="M102.829286,60.9761639 C104.079489,57.8672515 107.929672,56.5506657 109.75519,56.3957733 C108.648816,58.6085224 104.223317,63.0340206 102.276098,63.8306103 C102.282737,62.8536815 102.47082,61.8856038 102.829286,60.9761639" id="Fill-8" fill="#82FFEC"></path>
                        <path d="M87.3400419,39.1695216 C88.2904176,38.9338638 89.2784101,38.8774387 90.249807,39.0035654 C91.9193261,39.2967547 93.4295274,40.1752161 94.509349,41.4818444 C95.333598,42.3857524 95.9719761,43.4412337 96.3901857,44.5907569 C95.8215092,44.4502473 95.2661091,44.2621636 94.7306239,44.0265059 C92.0200062,42.8869401 88.3136515,40.5192986 87.3400419,39.1695216" id="Fill-10" fill="#82FFEC"></path>
                        <path d="M106.535198,34.4674298 C105.994181,36.934645 102.818886,42.2784341 101.125026,43.5175736 C100.889368,42.5660915 100.83405,41.5792054 100.95907,40.6078085 C101.357365,37.2886849 104.755041,34.9874258 106.503113,34.4674298 L106.535198,34.4674298 Z" id="Fill-12" fill="#82FFEC"></path>
                        <path d="M88.203346,76.5096626 C89.1802747,76.5196199 90.147246,76.7065972 91.0577923,77.0628498 C94.1667048,78.3130531 95.4832905,82.1743003 95.6381829,83.9887545 C93.3590513,82.8159975 88.9556806,78.4347543 88.1701547,76.4764713 L88.203346,76.5096626 Z" id="Fill-14" fill="#82FFEC"></path>
                        <path d="M71.3641041,48.5737053 C73.3002595,49.4765069 74.8104608,51.0951329 75.5793911,53.0877134 C76.0496003,54.1332374 76.3173429,55.260633 76.364917,56.4068371 C73.9087655,55.3004625 68.7419964,50.1336934 68.0560442,48.0426455 C69.1834398,47.993965 70.3086228,48.1754104 71.3641041,48.5737053" id="Fill-16" fill="#82FFEC"></path>
                        <path d="M49.2366131,65.1693235 C51.1727686,66.0721251 52.6829698,67.6907511 53.4519002,69.6833316 C53.9221093,70.7288556 54.189852,71.8562512 54.2374261,73.0024553 C51.7812746,71.8960807 46.6145055,66.7293116 45.9285532,64.6382637 C47.0559489,64.5906896 48.1811318,64.7710286 49.2366131,65.1693235" id="Fill-18" fill="#82FFEC"></path>
                        <path d="M44.1914346,100.81649 L38.6595618,100.81649 C37.7423773,100.81649 37,101.559974 37,102.476052 C37,103.393236 37.7423773,104.135614 38.6595618,104.135614 L44.1914346,104.135614 C45.1086191,104.135614 45.8509964,103.393236 45.8509964,102.476052 C45.8509964,101.559974 45.1086191,100.81649 44.1914346,100.81649" id="Fill-20" fill="#051A16"></path>
                        <path d="M55.25518,100.81649 L49.7233073,100.81649 C48.8061228,100.81649 48.0637455,101.559974 48.0637455,102.476052 C48.0637455,103.393236 48.8061228,104.135614 49.7233073,104.135614 L55.25518,104.135614 C56.1723645,104.135614 56.9147418,103.393236 56.9147418,102.476052 C56.9147418,101.559974 56.1723645,100.81649 55.25518,100.81649" id="Fill-22" fill="#051A16"></path>
                        <path d="M66.3189255,100.81649 L60.7870528,100.81649 C59.8698683,100.81649 59.1274909,101.559974 59.1274909,102.476052 C59.1274909,103.393236 59.8698683,104.135614 60.7870528,104.135614 L66.3189255,104.135614 C67.23611,104.135614 67.9784873,103.393236 67.9784873,102.476052 C67.9784873,101.559974 67.23611,100.81649 66.3189255,100.81649" id="Fill-24" fill="#051A16"></path>
                        <path d="M77.382671,100.81649 L71.8507982,100.81649 C70.9336137,100.81649 70.1912364,101.559974 70.1912364,102.476052 C70.1912364,103.393236 70.9336137,104.135614 71.8507982,104.135614 L77.382671,104.135614 C78.2998555,104.135614 79.0422328,103.393236 79.0422328,102.476052 C79.0422328,101.559974 78.2998555,100.81649 77.382671,100.81649" id="Fill-26" fill="#051A16"></path>
                        <path d="M88.4464164,100.81649 L82.9145437,100.81649 C81.9984656,100.81649 81.2549819,101.559974 81.2549819,102.476052 C81.2549819,103.393236 81.9984656,104.135614 82.9145437,104.135614 L88.4464164,104.135614 C89.3624946,104.135614 90.1059783,103.393236 90.1059783,102.476052 C90.1059783,101.559974 89.3624946,100.81649 88.4464164,100.81649" id="Fill-28" fill="#051A16"></path>
                        <path d="M99.5101619,100.81649 L93.9782892,100.81649 C93.0622111,100.81649 92.3187274,101.559974 92.3187274,102.476052 C92.3187274,103.393236 93.0622111,104.135614 93.9782892,104.135614 L99.5101619,104.135614 C100.42624,104.135614 101.169724,103.393236 101.169724,102.476052 C101.169724,101.559974 100.42624,100.81649 99.5101619,100.81649" id="Fill-30" fill="#051A16"></path>
                        <path d="M110.573907,100.81649 L105.042035,100.81649 C104.125957,100.81649 103.382473,101.559974 103.382473,102.476052 C103.382473,103.393236 104.125957,104.135614 105.042035,104.135614 L110.573907,104.135614 C111.489986,104.135614 112.233469,103.393236 112.233469,102.476052 C112.233469,101.559974 111.489986,100.81649 110.573907,100.81649" id="Fill-32" fill="#051A16"></path>
                        <path d="M44.1914346,106.348363 L38.6595618,106.348363 C37.7423773,106.348363 37,107.091847 37,108.007925 C37,108.925109 37.7423773,109.667486 38.6595618,109.667486 L44.1914346,109.667486 C45.1086191,109.667486 45.8509964,108.925109 45.8509964,108.007925 C45.8509964,107.091847 45.1086191,106.348363 44.1914346,106.348363" id="Fill-34" fill="#051A16"></path>
                        <path d="M55.25518,106.348363 L49.7233073,106.348363 C48.8061228,106.348363 48.0637455,107.091847 48.0637455,108.007925 C48.0637455,108.925109 48.8061228,109.667486 49.7233073,109.667486 L55.25518,109.667486 C56.1723645,109.667486 56.9147418,108.925109 56.9147418,108.007925 C56.9147418,107.091847 56.1723645,106.348363 55.25518,106.348363" id="Fill-36" fill="#051A16"></path>
                        <path d="M66.3189255,106.348363 L60.7870528,106.348363 C59.8698683,106.348363 59.1274909,107.091847 59.1274909,108.007925 C59.1274909,108.925109 59.8698683,109.667486 60.7870528,109.667486 L66.3189255,109.667486 C67.23611,109.667486 67.9784873,108.925109 67.9784873,108.007925 C67.9784873,107.091847 67.23611,106.348363 66.3189255,106.348363" id="Fill-38" fill="#051A16"></path>
                        <path d="M77.382671,106.348363 L71.8507982,106.348363 C70.9336137,106.348363 70.1912364,107.091847 70.1912364,108.007925 C70.1912364,108.925109 70.9336137,109.667486 71.8507982,109.667486 L77.382671,109.667486 C78.2998555,109.667486 79.0422328,108.925109 79.0422328,108.007925 C79.0422328,107.091847 78.2998555,106.348363 77.382671,106.348363" id="Fill-40" fill="#051A16"></path>
                        <path d="M88.4464164,106.348363 L82.9145437,106.348363 C81.9984656,106.348363 81.2549819,107.091847 81.2549819,108.007925 C81.2549819,108.925109 81.9984656,109.667486 82.9145437,109.667486 L88.4464164,109.667486 C89.3624946,109.667486 90.1059783,108.925109 90.1059783,108.007925 C90.1059783,107.091847 89.3624946,106.348363 88.4464164,106.348363" id="Fill-42" fill="#051A16"></path>
                        <path d="M99.5101619,106.348363 L93.9782892,106.348363 C93.0622111,106.348363 92.3187274,107.091847 92.3187274,108.007925 C92.3187274,108.925109 93.0622111,109.667486 93.9782892,109.667486 L99.5101619,109.667486 C100.42624,109.667486 101.169724,108.925109 101.169724,108.007925 C101.169724,107.091847 100.42624,106.348363 99.5101619,106.348363" id="Fill-44" fill="#051A16"></path>
                        <path d="M110.573907,106.348363 L105.042035,106.348363 C104.125957,106.348363 103.382473,107.091847 103.382473,108.007925 C103.382473,108.925109 104.125957,109.667486 105.042035,109.667486 L110.573907,109.667486 C111.489986,109.667486 112.233469,108.925109 112.233469,108.007925 C112.233469,107.091847 111.489986,106.348363 110.573907,106.348363" id="Fill-46" fill="#051A16"></path>
                        <path d="M44.1914346,111.880236 L38.6595618,111.880236 C37.7423773,111.880236 37,112.623719 37,113.539797 C37,114.456982 37.7423773,115.199359 38.6595618,115.199359 L44.1914346,115.199359 C45.1086191,115.199359 45.8509964,114.456982 45.8509964,113.539797 C45.8509964,112.623719 45.1086191,111.880236 44.1914346,111.880236" id="Fill-48" fill="#051A16"></path>
                        <path d="M55.25518,111.880236 L49.7233073,111.880236 C48.8061228,111.880236 48.0637455,112.623719 48.0637455,113.539797 C48.0637455,114.456982 48.8061228,115.199359 49.7233073,115.199359 L55.25518,115.199359 C56.1723645,115.199359 56.9147418,114.456982 56.9147418,113.539797 C56.9147418,112.623719 56.1723645,111.880236 55.25518,111.880236" id="Fill-50" fill="#051A16"></path>
                        <path d="M66.3189255,111.880236 L60.7870528,111.880236 C59.8698683,111.880236 59.1274909,112.623719 59.1274909,113.539797 C59.1274909,114.456982 59.8698683,115.199359 60.7870528,115.199359 L66.3189255,115.199359 C67.23611,115.199359 67.9784873,114.456982 67.9784873,113.539797 C67.9784873,112.623719 67.23611,111.880236 66.3189255,111.880236" id="Fill-52" fill="#051A16"></path>
                        <path d="M77.382671,111.880236 L71.8507982,111.880236 C70.9336137,111.880236 70.1912364,112.623719 70.1912364,113.539797 C70.1912364,114.456982 70.9336137,115.199359 71.8507982,115.199359 L77.382671,115.199359 C78.2998555,115.199359 79.0422328,114.456982 79.0422328,113.539797 C79.0422328,112.623719 78.2998555,111.880236 77.382671,111.880236" id="Fill-54" fill="#051A16"></path>
                        <path d="M88.4464164,111.880236 L82.9145437,111.880236 C81.9984656,111.880236 81.2549819,112.623719 81.2549819,113.539797 C81.2549819,114.456982 81.9984656,115.199359 82.9145437,115.199359 L88.4464164,115.199359 C89.3624946,115.199359 90.1059783,114.456982 90.1059783,113.539797 C90.1059783,112.623719 89.3624946,111.880236 88.4464164,111.880236" id="Fill-56" fill="#051A16"></path>
                        <path d="M99.5101619,111.880236 L93.9782892,111.880236 C93.0622111,111.880236 92.3187274,112.623719 92.3187274,113.539797 C92.3187274,114.456982 93.0622111,115.199359 93.9782892,115.199359 L99.5101619,115.199359 C100.42624,115.199359 101.169724,114.456982 101.169724,113.539797 C101.169724,112.623719 100.42624,111.880236 99.5101619,111.880236" id="Fill-58" fill="#051A16"></path>
                        <path d="M110.573907,111.880236 L105.042035,111.880236 C104.125957,111.880236 103.382473,112.623719 103.382473,113.539797 C103.382473,114.456982 104.125957,115.199359 105.042035,115.199359 L110.573907,115.199359 C111.489986,115.199359 112.233469,114.456982 112.233469,113.539797 C112.233469,112.623719 111.489986,111.880236 110.573907,111.880236" id="Fill-60" fill="#051A16"></path>
                        <path d="M44.1914346,117.412108 L38.6595618,117.412108 C37.7423773,117.412108 37,118.155592 37,119.07167 C37,119.988855 37.7423773,120.731232 38.6595618,120.731232 L44.1914346,120.731232 C45.1086191,120.731232 45.8509964,119.988855 45.8509964,119.07167 C45.8509964,118.155592 45.1086191,117.412108 44.1914346,117.412108" id="Fill-62" fill="#051A16"></path>
                        <path d="M55.25518,117.412108 L49.7233073,117.412108 C48.8061228,117.412108 48.0637455,118.155592 48.0637455,119.07167 C48.0637455,119.988855 48.8061228,120.731232 49.7233073,120.731232 L55.25518,120.731232 C56.1723645,120.731232 56.9147418,119.988855 56.9147418,119.07167 C56.9147418,118.155592 56.1723645,117.412108 55.25518,117.412108" id="Fill-64" fill="#051A16"></path>
                        <path d="M66.3189255,117.412108 L60.7870528,117.412108 C59.8698683,117.412108 59.1274909,118.155592 59.1274909,119.07167 C59.1274909,119.988855 59.8698683,120.731232 60.7870528,120.731232 L66.3189255,120.731232 C67.23611,120.731232 67.9784873,119.988855 67.9784873,119.07167 C67.9784873,118.155592 67.23611,117.412108 66.3189255,117.412108" id="Fill-66" fill="#051A16"></path>
                        <path d="M77.382671,117.412108 L71.8507982,117.412108 C70.9336137,117.412108 70.1912364,118.155592 70.1912364,119.07167 C70.1912364,119.988855 70.9336137,120.731232 71.8507982,120.731232 L77.382671,120.731232 C78.2998555,120.731232 79.0422328,119.988855 79.0422328,119.07167 C79.0422328,118.155592 78.2998555,117.412108 77.382671,117.412108" id="Fill-68" fill="#051A16"></path>
                        <path d="M88.4464164,117.412108 L82.9145437,117.412108 C81.9984656,117.412108 81.2549819,118.155592 81.2549819,119.07167 C81.2549819,119.988855 81.9984656,120.731232 82.9145437,120.731232 L88.4464164,120.731232 C89.3624946,120.731232 90.1059783,119.988855 90.1059783,119.07167 C90.1059783,118.155592 89.3624946,117.412108 88.4464164,117.412108" id="Fill-70" fill="#051A16"></path>
                        <path d="M99.5101619,117.412108 L93.9782892,117.412108 C93.0622111,117.412108 92.3187274,118.155592 92.3187274,119.07167 C92.3187274,119.988855 93.0622111,120.731232 93.9782892,120.731232 L99.5101619,120.731232 C100.42624,120.731232 101.169724,119.988855 101.169724,119.07167 C101.169724,118.155592 100.42624,117.412108 99.5101619,117.412108" id="Fill-72" fill="#051A16"></path>
                        <path d="M110.573907,117.412108 L105.042035,117.412108 C104.125957,117.412108 103.382473,118.155592 103.382473,119.07167 C103.382473,119.988855 104.125957,120.731232 105.042035,120.731232 L110.573907,120.731232 C111.489986,120.731232 112.233469,119.988855 112.233469,119.07167 C112.233469,118.155592 111.489986,117.412108 110.573907,117.412108" id="Fill-74" fill="#051A16"></path>
                    </g>
                </g>
            </g>
        </g>
    </g>
</svg>