<?xml version="1.0" encoding="UTF-8"?>
<svg width="150px" height="150px" viewBox="0 0 150 150" version="1.1" xmlns="http://www.w3.org/2000/svg" xmlns:xlink="http://www.w3.org/1999/xlink">
    <!-- Generator: Sketch 46.1 (44463) - http://www.bohemiancoding.com/sketch -->
    <title>Icon</title>
    <desc>Created with Sketch.</desc>
    <defs></defs>
    <g id="Master" stroke="none" stroke-width="1" fill="none" fill-rule="evenodd">
        <g id="1-Home" transform="translate(-705.000000, -1613.000000)">
            <g id="Products" transform="translate(0.000000, 1396.000000)">
                <g id="nextOil" transform="translate(598.000000, 217.000000)">
                    <g id="Icon" transform="translate(107.000000, 0.000000)">
                        <circle id="Oval-3-Copy" fill="#82FFEC" cx="75" cy="75" r="75"></circle>
                        <g id="Page-1" transform="translate(39.000000, 26.000000)" fill="#051A16">
                            <path d="M20.0736,5.5557 C20.0136,10.4417 18.4646,19.2637 10.0956,29.8117 C3.7316,37.8347 2.0246,48.5407 5.8476,56.4517 C8.7676,62.4927 14.5276,65.8167 22.0736,65.8167 C30.1826,65.8167 37.7776,58.6837 40.5356,48.4657 C43.8746,36.1157 40.0776,18.6747 20.0736,5.5557 M22.0736,69.6597 C12.9736,69.6597 5.9826,65.5627 2.3876,58.1247 C-2.0634,48.9127 -0.1754,36.5777 7.0856,27.4257 C18.4186,13.1397 16.0046,2.4907 15.9796,2.3847 C15.7996,1.6347 16.0806,0.8457 16.6956,0.3847 C17.3146,-0.0763 18.1556,-0.1293 18.8126,0.2607 C43.4806,14.6517 48.1266,35.1147 44.2456,49.4677 C41.0356,61.3557 31.9166,69.6597 22.0736,69.6597" id="Fill-1"></path>
                            <path d="M29.1425,56.9918 C28.7525,56.9918 28.3585,56.8718 28.0165,56.6278 C27.1575,56.0048 26.9625,54.8038 27.5855,53.9448 C28.3435,52.9018 29.0005,51.8618 29.5595,50.8338 C30.0695,49.8958 31.2485,49.5588 32.1635,50.0618 C33.0985,50.5678 33.4435,51.7348 32.9365,52.6658 C32.3025,53.8328 31.5515,55.0228 30.7005,56.1968 C30.3255,56.7188 29.7355,56.9918 29.1425,56.9918" id="Fill-3"></path>
                            <path d="M33.7885,47.0958 C33.6455,47.0958 33.4995,47.0808 33.3525,47.0478 C32.3165,46.8038 31.6755,45.7708 31.9155,44.7388 C34.4855,33.7328 27.7085,25.0568 27.6375,24.9708 C26.9765,24.1418 27.1165,22.9328 27.9445,22.2688 C28.7705,21.6118 29.9785,21.7468 30.6465,22.5768 C30.9735,22.9898 38.6465,32.8138 35.6595,45.6098 C35.4515,46.4988 34.6625,47.0958 33.7885,47.0958" id="Fill-5"></path>
                            <path d="M54.2704,55.3375 C53.9994,58.8375 52.6114,64.3165 47.5594,70.6775 C43.5444,75.7395 42.4164,82.7345 44.8134,87.6955 C46.6364,91.4735 50.2584,93.5515 55.0094,93.5515 C60.1094,93.5515 64.8974,89.0075 66.6564,82.5045 C68.7614,74.7185 66.4544,63.7875 54.2704,55.3375 M55.0094,97.3945 C48.7944,97.3945 43.8184,94.4675 41.3534,89.3645 C38.2914,83.0295 39.5754,74.5595 44.5504,68.2905 C51.8494,59.0965 50.4044,52.4845 50.3404,52.2065 C50.1644,51.4595 50.4484,50.6685 51.0654,50.2145 C51.6844,49.7605 52.5144,49.7075 53.1744,50.0905 C69.8754,59.8355 73.0054,73.7425 70.3634,83.5065 C68.1534,91.6825 61.8394,97.3945 55.0094,97.3945" id="Fill-7"></path>
                        </g>
                    </g>
                </g>
            </g>
        </g>
    </g>
</svg>