<?xml version="1.0" encoding="UTF-8"?>
<svg width="150px" height="150px" viewBox="0 0 150 150" version="1.1" xmlns="http://www.w3.org/2000/svg" xmlns:xlink="http://www.w3.org/1999/xlink">
    <!-- Generator: Sketch 46.1 (44463) - http://www.bohemiancoding.com/sketch -->
    <title>Icon</title>
    <desc>Created with Sketch.</desc>
    <defs>
        <polygon id="path-1" points="0.00145227073 41.3373759 57.9401478 41.3373759 57.9401478 0.206705606 0.00145227073 0.206705606"></polygon>
        <polygon id="path-3" points="0.498860464 0.196424526 5.41121703 0.196424526 5.41121703 5.10840924 0.498860464 5.10840924 0.498860464 0.196424526"></polygon>
    </defs>
    <g id="Master" stroke="none" stroke-width="1" fill="none" fill-rule="evenodd">
        <g id="1-Home" transform="translate(-303.000000, -1613.000000)">
            <g id="Products" transform="translate(0.000000, 1396.000000)">
                <g id="nextProtein" transform="translate(198.000000, 217.000000)">
                    <g id="Icon" transform="translate(105.000000, 0.000000)">
                        <circle id="Oval-3" fill="#82FFEC" cx="75" cy="75" r="75"></circle>
                        <g id="Page-1" transform="translate(24.313058, 38.619141)">
                            <g id="Group-3" transform="translate(0.000000, 31.316729)">
                                <mask id="mask-2" fill="white">
                                    <use xlink:href="#path-1"></use>
                                </mask>
                                <g id="Clip-2"></g>
                                <path d="M53.9047623,3.94500896 L48.8597721,37.5995638 L9.07950865,37.5995638 L4.03451845,3.95483367 L53.9047623,3.95483367 L53.9047623,3.94500896 Z M56.0711116,0.206705606 L1.8681692,0.206705606 C0.836574324,0.206705606 -0.0034386496,1.04671858 0.00147370697,2.07831346 C0.00147370697,2.17164823 0.00638606354,2.26498301 0.0211231332,2.35831778 L5.62612198,39.7364389 C5.76366796,40.6550496 6.54964501,41.3329548 7.47316805,41.3378672 L50.4661127,41.3378672 C51.3896358,41.3329548 52.1756128,40.659962 52.3131588,39.7462636 L57.9181577,2.35831778 C58.0753531,1.33654762 57.3728861,0.378638086 56.3511159,0.226355033 C56.2577811,0.21653032 56.1644464,0.206705606 56.0711116,0.206705606 L56.0711116,0.206705606 Z" id="Fill-1" fill="#051A16" mask="url(#mask-2)"></path>
                            </g>
                            <path d="M56.2843079,31.5342423 L56.2843079,35.2725456 L100.2106,35.2725456 L99.5376075,37.3013489 L54.206381,42.7688018 L54.6484931,46.4874557 L101.16851,40.8677198 C101.885714,40.7842097 102.489934,40.2880617 102.715902,39.6003318 L104.577685,33.9855082 C104.896988,33.0079493 104.366454,31.9468802 103.383983,31.6275771 C103.197313,31.5637164 103.000819,31.5342423 102.804325,31.5342423 L56.2843079,31.5342423 Z" id="Fill-4" fill="#051A16"></path>
                            <path d="M12.936691,42.7452224 C11.9100085,42.8287325 11.1387685,43.7276938 11.2173662,44.7543763 C11.2222786,44.8182369 11.2321033,44.8870099 11.241928,44.9459582 L13.1037111,56.1117447 C13.2510818,57.1335148 14.1991667,57.8359818 15.2209368,57.6935235 C16.242707,57.5461528 16.9500863,56.5931556 16.807628,55.5713855 C16.8027156,55.5468237 16.7978033,55.5222619 16.7928909,55.4977001 L14.9311078,44.3319136 C14.7837371,43.3641794 13.91425,42.6715371 12.936691,42.7452224" id="Fill-6" fill="#051A16"></path>
                            <g id="Group-10" transform="translate(22.523259, 0.884646)">
                                <mask id="mask-4" fill="white">
                                    <use xlink:href="#path-3"></use>
                                </mask>
                                <g id="Clip-9"></g>
                                <path d="M2.04196202,4.53354414 C2.26301807,4.60722949 2.49389883,4.63670363 2.71495487,4.63670363 C3.65812733,4.63670363 4.5325268,4.03248377 4.83218055,3.09422367 C5.20551965,1.9250828 4.55708858,0.677344234 3.39286008,0.304005135 C2.22863157,-0.0742463209 0.975980645,0.574184746 0.602641546,1.73841325 C0.234214803,2.90264176 0.877733514,4.15529269 2.04196202,4.53354414" id="Fill-8" fill="#000000" mask="url(#mask-4)"></path>
                            </g>
                            <path d="M5.38836392,24.8804553 C4.16518714,24.8804553 3.16797875,25.8727513 3.16797875,27.0959281 C3.16797875,28.3191049 4.16518714,29.3114009 5.38836392,29.3114009 C6.61154071,29.3114009 7.60874909,28.3191049 7.60874909,27.0959281 C7.60874909,25.8727513 6.61154071,24.8804553 5.38836392,24.8804553" id="Fill-11" fill="#051A16"></path>
                            <path d="M8.91887459,18.9414162 C7.6956978,18.9414162 6.69848942,19.9386246 6.69848942,21.1618014 C6.69848942,22.3849782 7.6956978,23.3772742 8.91887459,23.3772742 C10.1420514,23.3772742 11.1392598,22.3849782 11.1392598,21.1618014 C11.1392598,19.9386246 10.1420514,18.9414162 8.91887459,18.9414162" id="Fill-13" fill="#051A16"></path>
                            <path d="M13.3709433,17.2383022 C14.5941201,17.2383022 15.5913285,16.2460062 15.5913285,15.0228294 C15.5913285,13.7996526 14.5941201,12.8024442 13.3709433,12.8024442 C12.1477666,12.8024442 11.1505582,13.7996526 11.1505582,15.0228294 C11.1505582,16.2460062 12.1477666,17.2383022 13.3709433,17.2383022" id="Fill-15" fill="#051A16"></path>
                            <path d="M18.3673012,15.482626 C18.3673012,16.7058027 19.3645096,17.6980988 20.5876864,17.6980988 C21.8108632,17.6980988 22.8031592,16.7058027 22.8031592,15.482626 C22.8031592,14.2594492 21.8108632,13.2622408 20.5876864,13.2622408 C19.3645096,13.2622408 18.3673012,14.2594492 18.3673012,15.482626" id="Fill-17" fill="#051A16"></path>
                            <path d="M18.1801404,11.199051 C19.4033172,11.199051 20.4005256,10.206755 20.4005256,8.98357822 C20.4005256,7.76040143 19.4033172,6.76319305 18.1801404,6.76319305 C16.9569636,6.76319305 15.9597553,7.76040143 15.9597553,8.98357822 C15.9597553,10.206755 16.9569636,11.199051 18.1801404,11.199051" id="Fill-19" fill="#051A16"></path>
                            <path d="M25.5943602,15.0940586 C25.5943602,16.3172353 26.5915686,17.3095314 27.8147454,17.3095314 C29.0379222,17.3095314 30.0302182,16.3172353 30.0302182,15.0940586 C30.0302182,13.8708818 29.0379222,12.8785857 27.8147454,12.8785857 C26.5915686,12.8785857 25.5943602,13.8708818 25.5943602,15.0940586" id="Fill-21" fill="#051A16"></path>
                            <path d="M24.9994738,11.9373782 C26.2226506,11.9373782 27.219859,10.9450822 27.219859,9.72190541 C27.219859,8.49872863 26.2226506,7.5064326 24.9994738,7.5064326 C23.776297,7.5064326 22.7790886,8.49872863 22.7790886,9.72190541 C22.7790886,10.9450822 23.776297,11.9373782 24.9994738,11.9373782" id="Fill-23" fill="#051A16"></path>
                            <path d="M32.1086362,5.55720951 C32.1823216,5.55720951 32.2609193,5.55229716 32.3346046,5.5473848 C32.9289998,5.48352416 33.4595343,5.19860748 33.8328734,4.73684597 C34.6090257,3.7936735 34.461655,2.38873953 33.5184826,1.61258719 C33.0567211,1.23924809 32.4868877,1.09678975 31.8924926,1.12626389 C31.3030098,1.18521217 30.7724753,1.4750412 30.3942238,1.93680272 C30.0208847,2.38873953 29.8489522,2.97330996 29.9079005,3.56279275 C29.9668488,4.15227553 30.2517655,4.67789769 30.7086146,5.05614914 C31.1065155,5.38527703 31.5977512,5.55720951 32.1086362,5.55720951" id="Fill-25" fill="#051A16"></path>
                            <path d="M38.7963185,11.2707714 C40.0194953,11.2707714 41.0167036,10.2784754 41.0167036,9.05529863 C41.0167036,7.83212184 40.0194953,6.83982581 38.7963185,6.83982581 C37.5731417,6.83982581 36.5759333,7.83212184 36.5759333,9.05529863 C36.5759333,10.2784754 37.5731417,11.2707714 38.7963185,11.2707714" id="Fill-27" fill="#051A16"></path>
                            <path d="M32.1110924,11.5296526 C33.3342692,11.5296526 34.3314776,10.5373566 34.3314776,9.31417982 C34.3314776,8.09100303 33.3342692,7.098707 32.1110924,7.098707 C30.8879156,7.098707 29.8907073,8.09100303 29.8907073,9.31417982 C29.8907073,10.5373566 30.8879156,11.5296526 32.1110924,11.5296526" id="Fill-29" fill="#051A16"></path>
                            <path d="M33.2699173,15.2478153 C33.2699173,16.4709921 34.2671257,17.4632881 35.4903025,17.4632881 C36.7134793,17.4632881 37.7057753,16.4709921 37.7057753,15.2478153 C37.7057753,14.0246385 36.7134793,13.0323425 35.4903025,13.0323425 C34.2671257,13.0323425 33.2699173,14.0246385 33.2699173,15.2478153" id="Fill-31" fill="#051A16"></path>
                            <path d="M42.3965846,16.6964693 C43.6197614,16.6964693 44.6169698,15.7041732 44.6169698,14.4809965 C44.6169698,13.2578197 43.6197614,12.2655236 42.3965846,12.2655236 C41.1734078,12.2655236 40.1761994,13.2578197 40.1761994,14.4809965 C40.1761994,15.7041732 41.1734078,16.6964693 42.3965846,16.6964693" id="Fill-33" fill="#051A16"></path>
                            <path d="M46.2223279,18.9414162 C44.9991511,18.9414162 44.0019427,19.9386246 44.0019427,21.1618014 C44.0019427,22.3849782 44.9991511,23.3772742 46.2223279,23.3772742 C47.4455047,23.3772742 48.4427131,22.3849782 48.4427131,21.1618014 C48.4427131,19.9386246 47.4455047,18.9414162 46.2223279,18.9414162" id="Fill-35" fill="#051A16"></path>
                            <path d="M41.0722133,21.1627839 C41.0722133,19.9396071 40.0750049,18.9423987 38.8518281,18.9423987 C37.6286513,18.9423987 36.6363553,19.9396071 36.6363553,21.1627839 C36.6363553,22.3859606 37.6286513,23.3782567 38.8518281,23.3782567 C40.0750049,23.3782567 41.0722133,22.3859606 41.0722133,21.1627839" id="Fill-37" fill="#051A16"></path>
                            <path d="M33.8574352,21.1627839 C33.8574352,19.9396071 32.8602268,18.9423987 31.63705,18.9423987 C30.4138732,18.9423987 29.4215772,19.9396071 29.4215772,21.1627839 C29.4215772,22.3859606 30.4138732,23.3782567 31.63705,23.3782567 C32.8602268,23.3782567 33.8574352,22.3859606 33.8574352,21.1627839" id="Fill-39" fill="#051A16"></path>
                            <path d="M26.3351436,21.1627839 C26.3351436,19.9396071 25.3379352,18.9423987 24.1147584,18.9423987 C22.8915816,18.9423987 21.8992856,19.9396071 21.8992856,21.1627839 C21.8992856,22.3859606 22.8915816,23.3782567 24.1147584,23.3782567 C25.3379352,23.3782567 26.3351436,22.3859606 26.3351436,21.1627839" id="Fill-41" fill="#051A16"></path>
                            <path d="M18.7917288,20.8557616 C18.6247087,19.6424095 17.5096038,18.7974842 16.286427,18.9595919 C15.7018565,19.043102 15.1811467,19.3476681 14.8225447,19.8192543 C14.468855,20.2957529 14.3116596,20.8803234 14.3951697,21.4648938 C14.4786798,22.0543766 14.7832459,22.5799987 15.2597444,22.9336884 C15.6478206,23.2235174 16.1095821,23.3807129 16.5860807,23.3807129 C16.6892402,23.3807129 16.7923997,23.3758005 16.9004715,23.3610634 C17.485042,23.2775534 18.0057518,22.9729873 18.3643538,22.501401 C18.7229558,22.0249024 18.8752389,21.440332 18.7917288,20.8557616" id="Fill-43" fill="#051A16"></path>
                            <path d="M12.826163,24.8804553 C11.6029862,24.8804553 10.6057778,25.8727513 10.6057778,27.0959281 C10.6057778,28.3191049 11.6029862,29.3114009 12.826163,29.3114009 C14.0493398,29.3114009 15.0465482,28.3191049 15.0465482,27.0959281 C15.0465482,25.8727513 14.0493398,24.8804553 12.826163,24.8804553" id="Fill-45" fill="#051A16"></path>
                            <path d="M20.2669095,24.8804553 C19.0437327,24.8804553 18.0465243,25.8727513 18.0465243,27.0959281 C18.0465243,28.3191049 19.0437327,29.3114009 20.2669095,29.3114009 C21.4900863,29.3114009 22.4872947,28.3191049 22.4872947,27.0959281 C22.4872947,25.8727513 21.4900863,24.8804553 20.2669095,24.8804553" id="Fill-47" fill="#051A16"></path>
                            <path d="M27.7047086,24.8804553 C26.4815318,24.8804553 25.4892358,25.8727513 25.4892358,27.0959281 C25.4892358,28.3191049 26.4815318,29.3114009 27.7047086,29.3114009 C28.9278854,29.3114009 29.9250937,28.3191049 29.9250937,27.0959281 C29.9250937,25.8727513 28.9278854,24.8804553 27.7047086,24.8804553" id="Fill-49" fill="#051A16"></path>
                            <path d="M35.1454551,24.8804553 C33.9222783,24.8804553 32.9250699,25.8727513 32.9250699,27.0959281 C32.9250699,28.3191049 33.9222783,29.3114009 35.1454551,29.3114009 C36.3686319,29.3114009 37.3658402,28.3191049 37.3658402,27.0959281 C37.3658402,25.8727513 36.3686319,24.8804553 35.1454551,24.8804553" id="Fill-51" fill="#051A16"></path>
                            <path d="M42.5857103,24.8804553 C41.3625335,24.8804553 40.3653252,25.8727513 40.3653252,27.0959281 C40.3653252,28.3191049 41.3625335,29.3114009 42.5857103,29.3114009 C43.8088871,29.3114009 44.8060955,28.3191049 44.8060955,27.0959281 C44.8060955,25.8727513 43.8088871,24.8804553 42.5857103,24.8804553" id="Fill-53" fill="#051A16"></path>
                            <path d="M50.0240007,24.8804553 C48.8008239,24.8804553 47.8036155,25.8727513 47.8036155,27.0959281 C47.8036155,28.3191049 48.8008239,29.3114009 50.0240007,29.3114009 C51.2471774,29.3114009 52.2443858,28.3191049 52.2443858,27.0959281 C52.2443858,25.8727513 51.2471774,24.8804553 50.0240007,24.8804553" id="Fill-55" fill="#051A16"></path>
                        </g>
                    </g>
                </g>
            </g>
        </g>
    </g>
</svg>